<svg xmlns="http://www.w3.org/2000/svg" viewBox="0 0 32 32"><defs><style>.cls-1{fill:#a2dea4;}.cls-2{fill:#84d387;}.cls-3{fill:#f9c956;}.cls-4{fill:#fffef4;}.cls-5{fill:#a7a9ac;}.cls-6{fill:#bcbec0;}.cls-7{fill:#e6e7e8;}.cls-8{fill:#ffed96;}.cls-9{fill:#fe6d7b;}</style></defs><title>Cash, money, wallet</title><g id="Layer_3" data-name="Layer 3"><polygon class="cls-1" points="21.03 7.27 19 7.27 17.25 15.06 25.38 16 25.87 11 26.42 8.4 21.03 7.27" id="id_128" style="fill: rgb(60, 214, 132);"></polygon><polygon class="cls-2" points="20.77 7.53 19.63 12.96 24.96 13.46 25.98 8.63 20.77 7.53" id="id_129" style="fill: rgb(40, 199, 114);"></polygon><polygon class="cls-3" points="9.67 2.93 7.97 11 8 17 18.54 17 20.24 11 21.03 7.27 21.42 5.4 9.67 2.93" id="id_130" style="fill: rgb(245, 206, 63);"></polygon><polygon class="cls-4" points="11.89 3.4 9.97 12.06 12.9 12.71 14.82 4.01 11.89 3.4" id="id_131"></polygon><path class="cls-5" d="M26.42,11H6.13A3.13,3.13,0,0,0,3,14.13V25.88A3.13,3.13,0,0,0,6.13,29H26.42A2.59,2.59,0,0,0,29,26.42V13.58A2.59,2.59,0,0,0,26.42,11Z" id="id_132" style="fill: rgb(0, 76, 84);"></path><path class="cls-6" d="M21.09,17H29a0,0,0,0,1,0,0v6a0,0,0,0,1,0,0H21.09A2.09,2.09,0,0,1,19,20.91V19.09A2.09,2.09,0,0,1,21.09,17Z" id="id_133" style="fill: rgb(178, 177, 179);"></path><path class="cls-7" d="M23.62,21h-2.4a1,1,0,0,1,0-2h2.4a1,1,0,0,1,0,2Z" id="id_134"></path><path class="cls-8" d="M19.77,5.9a.82.82,0,0,0-.82.81.82.82,0,0,0,.82.82.82.82,0,0,0,.81-.82A.81.81,0,0,0,19.77,5.9Z" id="id_135"></path><circle class="cls-9" cx="19.43" cy="8.06" r="0.82" id="id_136"></circle></g></svg>