<svg xmlns="http://www.w3.org/2000/svg" xml:space="preserve" width="1.70666in" height="1.70666in" version="1.1" style="shape-rendering:geometricPrecision; text-rendering:geometricPrecision; image-rendering:optimizeQuality; fill-rule:evenodd; clip-rule:evenodd" viewBox="0 0 1706.66 1706.66" xmlns:xlink="http://www.w3.org/1999/xlink" xmlns:xodm="http://www.corel.com/coreldraw/odm/2003">
 <defs>
  <style type="text/css">
   
    .fil0 {fill:#000066}
    .fil2 {fill:#DADADA}
    .fil1 {fill:#FF6600}
   
  </style>
 </defs>
 <g id="Layer_x0020_1">
  <metadata id="CorelCorpID_0Corel-Layer"></metadata>
  <path class="fil0" d="M1296.66 1706.66l-886.67 0c-93.61,0 -169.86,-76.25 -169.86,-169.86l0 -1242.49c0,-11.11 8.89,-20 20,-20l1186.24 0c10.97,0 20,8.89 20,20l0 1242.5c0.14,93.61 -76.11,169.86 -169.72,169.86zm-1016.52 -1392.35l0 1222.5c0,71.67 58.19,129.86 129.86,129.86l886.66 -0c71.67,0 129.86,-58.19 129.86,-129.86l-0 -1222.49 -1146.38 0z" id="id_101"></path>
  <path class="fil1" d="M567.64 1475.69c-37.64,0 -68.33,-30.69 -68.33,-68.33l0 -833.61c0,-37.64 30.69,-68.33 68.33,-68.33 37.78,0 68.33,30.69 68.33,68.33l0 833.47c0.14,37.78 -30.56,68.47 -68.33,68.47zm0 -930.41c-15.69,0 -28.33,12.78 -28.33,28.33l0 833.47c0,37.32 56.67,37.27 56.67,0l-0 -833.33c0.14,-15.69 -12.64,-28.47 -28.33,-28.47z" id="id_102" style="fill: rgb(240, 20, 5);"></path>
  <path class="fil1" d="M853.33 1475.69c-37.63,0 -68.33,-30.69 -68.33,-68.33l0 -833.61c0,-37.64 30.69,-68.33 68.33,-68.33 37.78,0 68.33,30.69 68.33,68.33l0 833.47c0,37.78 -30.56,68.47 -68.33,68.47zm0 -930.41c-15.69,0 -28.33,12.78 -28.33,28.33l0 833.47c0,37.32 56.67,37.27 56.67,0l0 -833.33c0,-15.69 -12.64,-28.47 -28.33,-28.47z" id="id_103" style="fill: rgb(240, 16, 0);"></path>
  <path class="fil1" d="M1139.02 1475.69c-37.64,0 -68.33,-30.69 -68.33,-68.33l0 -833.61c0,-37.64 30.69,-68.33 68.33,-68.33 37.64,0 68.33,30.69 68.33,68.33l0 833.47c-0,37.78 -30.7,68.47 -68.34,68.47zm0 -930.41c-15.69,0 -28.33,12.78 -28.33,28.33l0 833.47c0,37.35 56.67,37.2 56.67,0l0 -833.33c0,-15.69 -12.78,-28.47 -28.33,-28.47z" id="id_104" style="fill: rgb(245, 16, 0);"></path>
  <path class="fil0" d="M1593.46 314.31l-1480.27 0c-11.11,0 -20,-8.89 -20,-20l0 -119.86c0,-20.56 16.81,-37.36 37.36,-37.36l1445.55 0c20.56,0 37.36,16.81 37.36,37.36l0 119.86c0,11.11 -9.03,20 -20,20zm-1460.27 -40l1440.27 0 0 -97.22 -1440.27 0 0 97.22z" id="id_105"></path>
  <path class="fil0" d="M1047.07 177.22l-387.49 0c-11.11,0 -20,-8.89 -20,-20l0 -119.86c0,-20.56 16.81,-37.36 37.36,-37.36l352.91 0c20.56,0 37.36,16.81 37.36,37.36l0 119.86c-0.14,10.97 -9.03,20 -20.14,20zm-367.49 -40l347.63 0 0 -97.22 -347.63 0 0 97.22z" id="id_106"></path>
  <path class="fil2" d="M1335.76 314.31l0 1222.5c0.07,52.01 -23.43,98.67 -60.39,129.86l21.3 0c71.67,0 129.86,-58.19 129.86,-129.86l-0 -1222.49 -90.76 0z" id="id_107"></path>
 </g>
</svg>