<svg version="1.1" id="Layer_1" xmlns="http://www.w3.org/2000/svg" xmlns:xlink="http://www.w3.org/1999/xlink" x="0px" y="0px" viewBox="0 0 120 120" style="enable-background:new 0 0 120 120;" xml:space="preserve">
<style type="text/css">
	.st0{fill:#FC997C;}
</style>
<path class="st0" d="M99.7,80.1l-23.5,1.4c-1.4,0.1-2.2-1.5-1.3-2.6l5.9-7.3c0.6-0.7,0.4-1.7-0.2-2.2L63.3,55.6
	c-0.7-0.5-1.6-0.5-2.2,0.2l-7.3,8.4l-2.2,2.5c-0.6,0.7-1.6,0.7-2.2,0.2L47.1,65L19.4,41.2c-0.6-0.5-0.7-1.4-0.3-2.1h0
	c0.5-0.7,1.4-0.9,2.1-0.5l26.6,15.2c0.7,0.4,1.5,0.2,2-0.3l8-9.1l2.2-2.5c0.6-0.6,1.5-0.7,2.2-0.2l2.6,2.1l22.1,17.9
	c0.7,0.6,1.7,0.4,2.2-0.2l5.9-7.3c0.9-1.1,2.6-0.6,2.8,0.8l3.5,23.3C101.3,79.2,100.6,80.1,99.7,80.1z" id="id_103" style="fill: rgb(245, 20, 12);"></path>
</svg>