<svg xmlns="http://www.w3.org/2000/svg" viewBox="0 0 64 64"><g id="Layer_27" data-name="Layer 27"><path d="M50.94,50.5H12a1.5,1.5,0,0,0,0,3H50.94A1.5,1.5,0,0,0,50.94,50.5Z" id="id_101"></path><path d="M51.68,12.38h0c-2.83-2.83-7.88-2.39-11.26,1L20.24,33.55a1.47,1.47,0,0,0-.39.67l-3,11.16a1.51,1.51,0,0,0,1.84,1.83l11.15-3a1.4,1.4,0,0,0,.67-.38L47.86,26.46l2.83-2.83C53.75,20.71,54.75,15.4,51.68,12.38Zm-23,29-8.26,2.23,2.23-8.25,16-16,6,6ZM50.52,17.64c-.09,2.18-2.17,4.16-3.72,5.64l-6-6,1.76-1.77C45.67,12.22,51,13.06,50.52,17.64Z" id="id_102"></path></g></svg>