<svg id="Layer_x0020_1" xmlns="http://www.w3.org/2000/svg" width="900" height="900" viewBox="0 0 900 900">
  <circle id="Ellipse_18" data-name="Ellipse 18" cx="450" cy="450" r="450" fill="#e35260"></circle>
  <g id="_248996832">
    <path id="_248982504" d="M325.074,231.223V194H270.182v37.222Z" fill="#fffffe" fill-rule="evenodd"></path>
    <path id="_248981928" d="M325.074,245.653H270.182v65.525h54.892Z" fill="#fffffe" fill-rule="evenodd"></path>
    <path id="_248982456" d="M325.074,325.607H270.182v51.376h54.892Z" fill="#fffffe" fill-rule="evenodd"></path>
    <path id="_248998032" d="M325.074,391.411H270.182v51.375h54.892Z" fill="#fffffe" fill-rule="evenodd"></path>
    <path id="_248997432" d="M325.074,457.214H270.182v51.375h54.892l0-44.437Z" fill="#fffffe" fill-rule="evenodd"></path>
    <path id="_248997624" d="M325.074,523.017H270.182v51.376h54.892Z" fill="#fffffe" fill-rule="evenodd"></path>
    <path id="_248997504" d="M325.074,588.822H270.182V640.2h54.892Z" fill="#fffffe" fill-rule="evenodd"></path>
    <path id="_248997864" d="M325.074,654.625H270.182V706h54.892l0-30.284Z" fill="#fffffe" fill-rule="evenodd"></path>
    <path id="_248997336" d="M339.5,581.607V668.5h221V471.366h-221V581.607Z" fill="#fffffe" fill-rule="evenodd"></path>
    <path id="_248997648" d="M339.5,456.938h221V259.44l-221,.326V456.938Z" fill="#fffffe" fill-rule="evenodd"></path>
    <path id="_248997696" d="M574.926,231.25c48.787,0,18.352.02,29.74.014l25.152-.011V194H574.926v37.25Z" fill="#fffffe" fill-rule="evenodd"></path>
    <path id="_248997312" d="M604.667,245.636c-32.68.019-8.53.039-29.74.044v65.5h54.892V245.626l-25.152.009Z" fill="#fffffe" fill-rule="evenodd"></path>
    <path id="_248996448" d="M629.818,325.607H574.926v51.376h54.892Z" fill="#fffffe" fill-rule="evenodd"></path>
    <path id="_248996664" d="M629.818,391.411H574.926v51.375h54.892Z" fill="#fffffe" fill-rule="evenodd"></path>
    <path id="_248996640" d="M629.818,457.214H574.926v6.733c0,.069,0,.136,0,.2s0,.137,0,.2v44.232h54.892V457.214Z" fill="#fffffe" fill-rule="evenodd"></path>
    <path id="_248996712" d="M629.818,523.017H574.926v51.376h54.892Z" fill="#fffffe" fill-rule="evenodd"></path>
    <path id="_248997072" d="M629.818,588.822H574.926V640.2h54.892Z" fill="#fffffe" fill-rule="evenodd"></path>
    <path id="_248996760" d="M629.818,654.625H574.926V675.51c0,.067,0,.136,0,.2s0,.136,0,.2V706h54.892Z" fill="#fffffe" fill-rule="evenodd"></path>
  </g>
</svg>