<?xml version="1.0" encoding="UTF-8"?>
<!DOCTYPE svg PUBLIC "-//W3C//DTD SVG 1.1//EN" "http://www.w3.org/Graphics/SVG/1.1/DTD/svg11.dtd">
<!-- Creator: CorelDRAW -->
<svg xmlns="http://www.w3.org/2000/svg" xml:space="preserve" width="2.66666in" height="2.66666in" version="1.1" style="shape-rendering:geometricPrecision; text-rendering:geometricPrecision; image-rendering:optimizeQuality; fill-rule:evenodd; clip-rule:evenodd"
viewBox="0 0 2666.66 2666.66"
 xmlns:xlink="http://www.w3.org/1999/xlink"
 xmlns:xodm="http://www.corel.com/coreldraw/odm/2003">
 <defs>
  <style type="text/css">
   <![CDATA[
    .fil1 {fill:#FEFEFE}
    .fil0 {fill:#FF2E93}
    .fil2 {fill:#FEFEFE;fill-rule:nonzero}
   ]]>
  </style>
 </defs>
 <g id="Layer_x0020_1">
  <metadata id="CorelCorpID_0Corel-Layer"/>
  <circle class="fil0" cx="1333.33" cy="1333.33" r="1333.33"/>
  <path class="fil1" d="M2080.27 1761.75l-653.81 0 11.46 197.31c1.49,25.59 22.04,45.65 46.78,45.65l537.29 0c24.75,0 45.29,-20.06 46.81,-45.66l11.46 -197.3z"/>
  <path class="fil2" d="M1192.28 2004.71l-542.83 0c-58.96,0 -108.55,-40.89 -121.93,-95.8 4.78,0.74 9.69,1.13 14.68,1.13l757.33 0c4.99,0 9.89,-0.39 14.68,-1.13 -13.37,54.91 -62.96,95.8 -121.93,95.8z"/>
  <path class="fil2" d="M1299.53 1876.71l-757.33 0c-34.29,0 -62.19,-27.92 -62.19,-62.21l0 -43.78c65.62,-16.47 138.83,11.15 200.48,24.23 2.2,0.47 55.33,11.03 119.4,-30.39l3.35 -2.15c35.46,-22.97 36.85,-23.83 79.74,-11.76 18.32,5.17 35.22,13.18 51.57,20.94 28.46,13.53 57.52,27.32 94.1,27.32 23.7,-0.02 50.56,-5.79 82.42,-21.18 19.61,-9.45 31.97,-18.22 41,-24.61 17.01,-12 20.54,-14.53 59.31,-5.33 23.34,5.54 46.51,14.93 68.89,27.91 10.54,7.45 49.35,15.68 81.48,12.13l0 26.68c-0.02,34.29 -27.92,62.2 -62.21,62.2zm-819.53 -144.2l0 -53.41c0,-34.3 27.9,-62.21 62.19,-62.21l757.33 0c34.29,0 62.21,27.92 62.21,62.21l0 68.79c-17.73,1.87 -53.7,-2.34 -60.47,-6.26 -26.04,-15.22 -53.18,-26.25 -80.67,-32.78 -51.47,-12.21 -66.01,-6.54 -91.64,11.61 -8.76,6.19 -18.68,13.22 -35.29,21.23 -63.86,30.85 -98.35,14.47 -141.98,-6.24 -17.85,-8.47 -36.29,-17.22 -57.87,-23.31 -57.92,-16.35 -71.09,-10.03 -112.32,16.67l-3.32 2.15c-44.99,29.07 -80.96,26.03 -88.17,25.03 -88.12,-34.67 -165.17,-31.06 -210.01,-23.5z"/>
  <path class="fil2" d="M524.06 1585.3c3.49,-124.33 105.71,-224.43 230.87,-224.43l331.86 0c125.17,0 227.39,100.09 230.87,224.43 -5.87,-1.13 -11.94,-1.74 -18.14,-1.74l-757.33 -0c-6.2,0 -12.26,0.6 -18.14,1.74z"/>
  <path class="fil2" d="M2153.26 1099.9l-799.81 0c-18.41,0 -33.4,-14.98 -33.4,-33.4l0 -77.91c0,-18.42 14.99,-33.4 33.4,-33.4l799.81 0c18.41,0 33.4,14.98 33.4,33.4l0 77.91c0,18.43 -14.99,33.4 -33.4,33.4z"/>
  <path class="fil2" d="M1673.31 921.85l0 -179.87c0,-44.13 35.9,-80.03 80.04,-80.03 44.14,0 80.04,35.9 80.04,80.03l0 179.87 -160.09 0z"/>
  <path class="fil2" d="M1753.37 1666.22c-35.76,0 -69.39,-13.94 -94.69,-39.22 -48.41,-48.42 -51.92,-125.01 -10.54,-177.52l188.07 188.07c-23.51,18.58 -52.4,28.67 -82.83,28.67zm-82.84 -239.16c23.53,-18.59 52.41,-28.66 82.84,-28.66 35.78,0 69.41,13.93 94.7,39.2 25.29,25.31 39.22,58.93 39.22,94.69 0,30.44 -10.09,59.33 -28.67,82.84l-188.08 -188.08z"/>
  <path class="fil1" d="M1635.11 1650.57c-112.4,-112.38 -26.35,-285.5 118.26,-285.5 44.6,0 86.73,17.43 118.26,48.97 31.55,31.54 48.98,73.65 48.98,118.26 0,90.98 -76.22,167.25 -167.24,167.25 -44.6,0 -86.72,-17.44 -118.26,-48.98zm-210.96 71.17l658.45 0 22.02 -378.88 -702.48 0 22.02 378.88z"/>
  <polygon class="fil1" points="1399.8,1302.86 2106.93,1302.86 2116.79,1133.23 1389.95,1133.23 "/>
 </g>
</svg>
