<?xml version="1.0" encoding="UTF-8"?>
<!DOCTYPE svg PUBLIC "-//W3C//DTD SVG 1.1//EN" "http://www.w3.org/Graphics/SVG/1.1/DTD/svg11.dtd">
<!-- Creator: CorelDRAW -->
<svg xmlns="http://www.w3.org/2000/svg" xml:space="preserve" width="2.83333in" height="2.83333in" version="1.1" style="shape-rendering:geometricPrecision; text-rendering:geometricPrecision; image-rendering:optimizeQuality; fill-rule:evenodd; clip-rule:evenodd"
viewBox="0 0 2833 2833"
 xmlns:xlink="http://www.w3.org/1999/xlink">
 <defs>
  <style type="text/css">
   <![CDATA[
    .fil2 {fill:#00AB94}
    .fil1 {fill:#4D4D4D}
    .fil5 {fill:#7ED63F}
    .fil6 {fill:#99A4AC}
    .fil3 {fill:#D9F2F2}
    .fil7 {fill:#F1F1F1}
    .fil4 {fill:#FF700D}
    .fil0 {fill:#FFF0A7}
   ]]>
  </style>
 </defs>
 <g id="Layer_x0020_1">
  <metadata id="CorelCorpID_0Corel-Layer"/>
  <circle class="fil0" cx="1417" cy="1417" r="1417"/>
  <path class="fil1" d="M2034 2269l-1237 0c-42,0 -77,-30 -80,-72l-48 -701 -17 0c-25,0 -46,-22 -46,-47l0 -111c0,-25 21,-45 46,-45l148 0c-40,-36 -65,-87 -65,-144 0,-123 71,-92 71,-219 0,-59 40,-108 94,-120l0 -191c0,-32 50,-32 50,0l0 30c61,-53 157,-46 162,-7 9,76 -72,156 -162,147l0 19c57,11 101,61 101,122 0,129 71,96 71,219 -1,57 -26,108 -66,144l169 0 280 -574c18,-37 63,-52 100,-34l14 6c36,17 51,63 33,100l-245 502 267 0 0 -164c0,-166 106,-113 106,-239l0 -179c-14,-1 -24,-12 -24,-25l0 -97c0,-14 11,-25 25,-25l211 0c13,0 24,11 24,25l0 97c0,13 -11,25 -26,25l0 185c0,115 107,70 107,233l0 164 83 0c26,0 47,20 47,45l0 111c0,27 -22,47 -47,47l-17 0 -50 701c-2,40 -36,72 -79,72zm-1047 -1107c-31,0 -25,-37 -25,-62 0,-33 50,-33 50,0 0,25 6,62 -25,62zm-118 0c-31,0 -24,-37 -24,-62 0,-33 49,-33 49,0 0,21 6,62 -25,62zm71 -88c-31,0 -25,-37 -25,-63 0,-31 50,-30 50,0 0,23 6,63 -25,63zm338 219l75 0 255 -523c17,-33 -44,-63 -60,-30l-270 553zm-328 -553c49,9 103,-29 112,-80 -49,-9 -103,29 -112,80zm-42 553l39 0c70,-10 125,-71 125,-143 0,-97 -73,-81 -71,-219 1,-41 -32,-75 -73,-75 -41,0 -74,34 -74,75 0,144 -70,120 -70,219 0,72 54,133 124,143zm816 0l323 0 0 -107 -323 0 0 107zm323 -157c0,-72 -17,-90 -47,-116 -28,-24 -60,-50 -60,-125l0 -184 -111 0 0 179c0,81 -31,108 -59,133 -30,26 -46,39 -46,113l323 0zm-242 -474l162 0 0 -48 -162 0 0 48zm-28 905c0,-14 11,-25 25,-25l101 0c14,0 25,11 25,25l0 583c-2,13 -13,24 -25,24l-101 0c-14,0 -25,-11 -25,-25l0 -582zm101 24l-53 0 0 534 53 0 0 -534zm-320 -24c0,-14 11,-25 25,-25l102 0c14,0 25,11 25,25l0 583c-1,13 -12,24 -25,24l-102 0c-14,0 -25,-11 -25,-25l0 -582zm102 24l-54 0 0 534 54 0 0 -534zm-320 -24c0,-14 12,-25 25,-25l103 0c14,0 25,11 25,25l0 583c-2,13 -13,24 -25,24l-103 0c-13,0 -25,-11 -25,-25l0 -582zm103 24l-54 0 0 534 54 0 0 -534zm-320 -24c0,-14 11,-25 25,-25l101 0c14,0 25,11 25,25l0 583c-1,13 -11,24 -25,24l-101 0c-14,0 -25,-11 -25,-25l0 -582zm101 24l-53 0 0 534 53 0 0 -534zm-320 -24c0,-14 11,-25 25,-25l103 0c13,0 24,11 24,25l0 583c0,13 -11,24 -24,24l-103 0c-14,0 -25,-11 -25,-25l0 -582zm103 24l-54 0 0 534 54 0 0 -534zm1170 -143l0 -107c-508,0 -1016,0 -1524,0l0 107c508,0 1016,0 1524,0zm-1459 48l48 697c1,17 13,28 31,28l1237 0c17,0 30,-11 31,-28l49 -697 -1396 0z"/>
  <polygon class="fil2" points="653,1448 2177,1448 2177,1341 653,1341 "/>
  <path class="fil2" d="M1928 1567l0 583c-2,13 -13,24 -25,24l-101 0c-14,0 -25,-11 -25,-25l0 -582c0,-14 11,-25 25,-25l101 0c14,0 25,11 25,25zm-243 -25c14,0 25,11 25,25l0 583c-1,13 -12,24 -25,24l-102 0c-14,0 -25,-11 -25,-25l0 -582c0,-14 11,-25 25,-25l102 0zm429 -46l-1396 0 48 697c1,17 13,28 31,28l1237 0c17,0 30,-11 31,-28l49 -697zm-621 71l0 583c-2,13 -13,24 -25,24l-103 0c-13,0 -25,-11 -25,-25l0 -582c0,-14 12,-25 25,-25l103 0c14,0 25,11 25,25zm-244 -25c14,0 25,11 25,25l0 583c-1,13 -11,24 -25,24l-101 0c-14,0 -25,-11 -25,-25l0 -582c0,-14 11,-25 25,-25l101 0zm-217 0c13,0 24,11 24,25l0 583c0,13 -11,24 -24,24l-103 0c-14,0 -25,-11 -25,-25l0 -582c0,-14 11,-25 25,-25l103 0z"/>
  <polygon class="fil3" points="1878,2125 1878,1591 1825,1591 1825,2125 "/>
  <polygon class="fil3" points="1660,2125 1660,1591 1606,1591 1606,2125 "/>
  <polygon class="fil3" points="1443,2125 1443,1591 1389,1591 1389,2125 "/>
  <polygon class="fil3" points="1224,2125 1224,1591 1171,1591 1171,2125 "/>
  <polygon class="fil3" points="1007,2125 1007,1591 953,1591 953,2125 "/>
  <path class="fil4" d="M962 1100c0,-33 50,-33 50,0 0,25 6,62 -25,62 -31,0 -25,-37 -25,-62zm-15 193c70,-10 125,-71 125,-143 0,-97 -73,-81 -71,-219 1,-41 -32,-75 -73,-75 -41,0 -74,34 -74,75 0,144 -70,120 -70,219 0,72 54,133 124,143l39 0zm-32 -282c0,-31 50,-30 50,0 0,23 6,63 -25,63 -31,0 -25,-37 -25,-63zm-70 89c0,-33 49,-33 49,0 0,21 6,62 -25,62 -31,0 -24,-37 -24,-62z"/>
  <path class="fil5" d="M950 740c49,9 103,-29 112,-80 -49,-9 -103,29 -112,80z"/>
  <path class="fil6" d="M1548 740l-270 553 75 0 255 -523c17,-33 -44,-63 -60,-30z"/>
  <path class="fil7" d="M1770 1023c-30,26 -46,39 -46,113l323 0c0,-72 -17,-90 -47,-116 -28,-24 -60,-50 -60,-125l0 -184 -111 0 0 179c0,81 -31,108 -59,133z"/>
  <polygon class="fil3" points="2047,1186 1724,1186 1724,1293 2047,1293 "/>
  <polygon class="fil6" points="1805,662 1967,662 1967,614 1805,614 "/>
 </g>
</svg>
