<svg id="Layer_x0020_1" xmlns="http://www.w3.org/2000/svg" width="3000" height="3000" viewBox="0 0 3000 3000">
  <circle id="Ellipse_4" data-name="Ellipse 4" cx="1500" cy="1500" r="1500" fill="#eb6117"></circle>
  <path id="Path_21" data-name="Path 21" d="M655.71,1591.67a26.566,26.566,0,0,0,35.21,39.79l168.73-149.75v626.87a26.669,26.669,0,0,0,26.67,26.67h460.2V1799.21a163.605,163.605,0,0,1,327.21,0v336.04h439.91a26.669,26.669,0,0,0,26.67-26.67v-629.5l169.15,142.65a26.609,26.609,0,0,0,34.37-40.63l-211.68-178.53a25.97,25.97,0,0,0-2.72-2.29L1503.24,872.16a26.673,26.673,0,0,0-36.18-.72l.07.07-596.7,529.58a27.319,27.319,0,0,0-3.46,3.07L655.72,1591.64Zm844.27-475.89a135.715,135.715,0,1,1-95.96,39.75A135.289,135.289,0,0,1,1499.98,1115.78Zm-464.54,365.26h210.11a26.669,26.669,0,0,1,26.67,26.67v210.11a26.669,26.669,0,0,1-26.67,26.67H1035.44a26.669,26.669,0,0,1-26.67-26.67V1507.71A26.669,26.669,0,0,1,1035.44,1481.04Zm718.96,0h210.11a26.669,26.669,0,0,1,26.67,26.67v210.11a26.669,26.669,0,0,1-26.67,26.67H1754.4a26.669,26.669,0,0,1-26.67-26.67V1507.71A26.669,26.669,0,0,1,1754.4,1481.04Zm-354.54,654.23h220.53V1799.23a110.265,110.265,0,0,0-220.53,0Z" fill="#fff"></path>
</svg>