<?xml version="1.0" encoding="UTF-8"?>
<!DOCTYPE svg PUBLIC "-//W3C//DTD SVG 1.1//EN" "http://www.w3.org/Graphics/SVG/1.1/DTD/svg11.dtd">
<!-- Creator: CorelDRAW -->
<svg xmlns="http://www.w3.org/2000/svg" xml:space="preserve" width="2.66666in" height="2.66666in" version="1.1" style="shape-rendering:geometricPrecision; text-rendering:geometricPrecision; image-rendering:optimizeQuality; fill-rule:evenodd; clip-rule:evenodd"
viewBox="0 0 2666.66 2666.66"
 xmlns:xlink="http://www.w3.org/1999/xlink"
 xmlns:xodm="http://www.corel.com/coreldraw/odm/2003">
 <defs>
  <style type="text/css">
   <![CDATA[
    .fil1 {fill:black}
    .fil2 {fill:#00A577}
    .fil3 {fill:#00CB93}
    .fil0 {fill:#E2F0CB}
   ]]>
  </style>
 </defs>
 <g id="Layer_x0020_1">
  <metadata id="CorelCorpID_0Corel-Layer"/>
  <circle class="fil0" cx="1333.33" cy="1333.33" r="1333.33"/>
  <path class="fil1" d="M2166.73 1669.27c-5.5,0 -81.69,-17.07 -206.11,-28.61 -10.28,-0.97 -18.19,-9.58 -18.19,-19.86l0 -584.72c-78.47,-12.78 -424.58,-62.5 -717.08,4.58 -187.36,42.92 -387.64,37.36 -522.78,25.14 -10.28,-0.97 -18.19,-9.58 -18.19,-19.86l-0 -240.41c0,-12.8 11.85,-22.25 24.17,-19.58 3.75,0.83 381.94,79.44 712.08,3.89 338.75,-77.64 745.69,-2.78 749.72,-2.08 9.44,1.81 16.25,10 16.25,19.72l0 841.8c0,10.8 -8.64,20 -19.86,20zm-184.3 -66.81c75.56,7.5 133.61,16.94 164.31,22.5l-0 -800.69c-78.47,-12.78 -424.58,-62.5 -717.08,4.58 -290.27,66.53 -615.27,17.08 -705.27,0.83l0 197.92c131.53,10.69 317.92,14.03 491.94,-25.83 338.74,-77.64 745.69,-2.78 749.72,-2.08 9.44,1.81 16.25,10 16.25,19.72l0 583.05 0.14 0z"/>
  <path class="fil1" d="M850.63 1767.6c-15.24,0 -19.86,-11.68 -19.86,-24.72 0,-58.94 -51.28,-105.22 -106.67,-100.97 -10.99,0.84 -21.11,-8.18 -21.11,-20l-0 -301.11c0,-17.94 15.13,-19.72 26.67,-19.72 58.83,0 104.94,-51.49 100.97,-105 -0.42,-10.83 7.78,-20 18.61,-20.69l751.24 -50.56c11.4,-0.82 21.39,8.56 21.39,20 0,25.29 78.16,103.33 104.17,103.33 11.1,0 20,8.91 20,20l0 300.97c0,11.1 -8.91,20 -20,20 -26.28,0 -104.31,78.19 -104.31,103.33 0,10.42 -8.06,19.17 -18.47,20l-751.11 55.28c-0.55,-0.15 -1.11,-0.15 -1.52,-0.15zm-107.64 -165.14c65.97,6.25 118.89,58.19 126.67,123.75l715.55 -52.78c14.72,-42.26 78.3,-105.65 120.69,-120.69l0 -268.6c-41.97,-14.89 -104.17,-76.77 -119.86,-118.33l-716.11 48.19c-6.67,66.81 -60.14,120.13 -126.94,126.39l-0 262.08z"/>
  <path class="fil1" d="M1235.07 1615.52c-53.25,0 -92.35,-28.44 -99.86,-81.67 -3.68,-26.1 36.01,-31.74 39.72,-5.56 8.93,63.03 85.24,50.64 103.47,34.59 29.63,-26.09 26.37,-85.77 -39.59,-93.06 -130.16,-14.37 -120.4,-184.57 7.36,-185.55 54.13,-0.41 93.24,28.95 100.55,81.66 3.63,26.15 -36,31.72 -39.72,5.56 -8.88,-62.41 -85.22,-50.62 -103.61,-34.59 -29.43,25.66 -26.69,85.74 39.59,93.06 130.74,14.43 119.85,185.56 -7.92,185.56z"/>
  <path class="fil1" d="M1241.04 1324.13c-26.2,0 -20,-33.69 -20,-60.83 0,-26.36 40,-26.36 40,0 0,26.93 6.2,60.83 -20,60.83z"/>
  <path class="fil1" d="M1241.04 1656.91c-26.31,0 -20,-34.34 -20,-61.94 0,-26.33 40,-26.33 40,0 0,27.38 6.31,61.94 -20,61.94z"/>
  <path class="fil1" d="M894.37 1912.04c-217.78,0 -395.42,-32.64 -398.06,-33.19 -9.44,-1.81 -16.25,-10 -16.25,-19.72l0 -841.8c0,-12.8 11.85,-22.25 24.17,-19.58 3.75,0.83 381.94,79.44 712.08,3.89 338.74,-77.64 745.69,-2.78 749.72,-2.08 9.44,1.81 16.25,10 16.25,19.72l0 841.8c0,12.8 -11.85,22.25 -24.17,19.58 -3.75,-0.83 -381.94,-79.44 -712.08,-3.89 -115.41,26.53 -238.89,35.28 -351.67,35.28zm-374.3 -69.72c78.47,12.78 424.58,62.5 717.08,-4.58 290.13,-66.53 615.27,-17.08 705.27,-0.83l0 -800.83c-78.47,-12.78 -424.58,-62.5 -717.08,4.58 -290.28,66.53 -615.28,17.08 -705.28,0.83l0 800.83z"/>
  <path class="fil1" d="M1852.01 1222.46c-10.97,0 -20,-8.89 -20,-20l0 -79.72c0,-26.33 40,-26.33 40,0l0 79.72c0.14,11.11 -8.89,20 -20,20z"/>
  <path class="fil1" d="M1852.01 1775.66c-10.97,0 -20,-9.03 -20,-20l0 -79.72c0,-26.3 40,-26.3 40,0l0 79.72c0.14,11.11 -8.89,20 -20,20z"/>
  <path class="fil1" d="M610.35 1222.46c-11.11,0 -20,-8.89 -20,-20l0 -79.72c0,-26.36 40,-26.36 40,0l0 79.72c0,11.11 -8.89,20 -20,20z"/>
  <path class="fil1" d="M610.35 1775.66c-11.11,0 -20,-9.03 -20,-20l0 -79.72c0,-26.33 40,-26.33 40,0l0 79.72c0,11.11 -8.89,20 -20,20z"/>
  <path class="fil2" d="M742.98 1602.46c65.97,6.25 118.89,58.19 126.67,123.75l715.55 -52.78c14.72,-42.26 78.3,-105.65 120.69,-120.69l0 -268.6c-41.97,-14.89 -104.17,-76.77 -119.86,-118.33l-716.11 48.19c-6.67,66.81 -60.14,120.13 -126.94,126.39l-0 262.08zm392.22 -68.61c-3.68,-26.1 36.01,-31.74 39.72,-5.56 5.3,37.42 34.35,48.26 60.9,47.53 2.41,-0.57 4.93,-0.74 7.41,-0.5 15.26,-1.64 28.78,-6.81 35.17,-12.44 29.63,-26.09 26.37,-85.77 -39.59,-93.06 -120.79,-13.33 -121.08,-160.87 -18.39,-182.83 0.12,-7.81 0.61,-16.02 0.61,-23.7 0,-26.36 40,-26.36 40,0 0,7 0.42,14.48 0.58,21.7 46.04,4.83 78.52,33.38 85.11,80.93 3.63,26.15 -36,31.72 -39.72,5.56 -8.88,-62.41 -85.22,-50.62 -103.61,-34.59 -29.43,25.66 -26.69,85.74 39.59,93.06 121.06,13.37 120.69,161.07 18.53,182.87 0.74,22.54 0.29,44.07 -20.48,44.07 -20.2,0 -21.17,-20.24 -20.54,-42.13 -45.73,-4.8 -78.49,-32.67 -85.3,-80.92z"/>
  <path class="fil3" d="M1746.04 1268.16l0 300.97c0,11.1 -8.91,20 -20,20 -26.28,0 -104.31,78.19 -104.31,103.33 0,10.42 -8.06,19.17 -18.47,20l-751.11 55.28c-0.55,-0.15 -1.11,-0.15 -1.52,-0.15 -15.24,0 -19.86,-11.68 -19.86,-24.72 0,-58.94 -51.28,-105.22 -106.67,-100.97 -10.99,0.84 -21.11,-8.18 -21.11,-20l-0 -301.11c0,-17.94 15.13,-19.72 26.67,-19.72 58.83,0 104.94,-51.49 100.97,-105 -0.42,-10.83 7.78,-20 18.61,-20.69l751.24 -50.56c11.4,-0.82 21.39,8.56 21.39,20 0,25.29 78.16,103.33 104.17,103.33 11.1,0 20,8.91 20,20zm-1225.96 574.16c78.47,12.78 424.58,62.5 717.08,-4.58 290.13,-66.53 615.27,-17.08 705.27,-0.83l0 -216.11 0 -584.72c-78.47,-12.78 -424.58,-62.5 -717.08,4.58 -21.17,4.85 -42.53,9.09 -63.97,12.76 -167.87,28.81 -338.95,23.22 -458.8,12.37 -0.96,-0.09 -1.9,-0.25 -2.81,-0.47 -82.51,-7.52 -146.8,-17.9 -179.69,-23.83l0 800.83zm1311.94 -166.39l0 79.72c0,10.97 9.03,20 20,20 11.11,0 20.14,-8.89 20,-20l0 -79.72c0,-26.3 -40,-26.3 -40,0zm-1201.66 -473.47c0,11.11 -8.89,20 -20,20 -11.11,0 -20,-8.89 -20,-20l0 -79.72c0,-26.36 40,-26.36 40,0l0 79.72zm0 553.19c0,11.11 -8.89,20 -20,20 -11.11,0 -20,-9.03 -20,-20l0 -79.72c0,-26.33 40,-26.33 40,0l0 79.72zm1221.66 -533.19c-10.97,0 -20,-8.89 -20,-20l0 -79.72c0,-26.33 40,-26.33 40,0l0 79.72c0.14,11.11 -8.89,20 -20,20z"/>
  <path class="fil2" d="M1982.28 1019.41l0 583.05 0.14 0c75.56,7.5 133.61,16.94 164.31,22.5l-0 -800.69c-78.47,-12.78 -424.58,-62.5 -717.08,4.58 -290.27,66.53 -615.27,17.08 -705.27,0.83l0 197.58c137.96,11.28 321.37,13.4 491.95,-25.64 338.74,-77.64 745.69,-2.78 749.72,-2.08 9.44,1.81 16.25,10 16.25,19.72l-0 0.14z"/>
 </g>
</svg>
