<?xml version="1.0" encoding="UTF-8" standalone="no"?> <svg width="24" height="24" viewBox="0 0 24 24" fill="none" xmlns="http://www.w3.org/2000/svg">
<path fill-rule="evenodd" clip-rule="evenodd" d="M2.88885 10.3371C3.21775 10.1173 3.60443 10 4 10C4.52994 10.0016 5.03774 10.2128 5.41247 10.5875C5.7872 10.9623 5.99841 11.4701 6 12C6 12.3956 5.88269 12.7822 5.66293 13.1111C5.44317 13.44 5.13083 13.6964 4.76538 13.8478C4.39992 13.9991 3.99779 14.0387 3.60983 13.9616C3.22187 13.8844 2.86549 13.6939 2.58578 13.4142C2.30608 13.1345 2.1156 12.7781 2.03843 12.3902C1.96126 12.0022 2.00086 11.6001 2.15223 11.2346C2.30361 10.8692 2.55995 10.5568 2.88885 10.3371ZM12 10C11.6044 10 11.2177 10.1173 10.8889 10.3371C10.56 10.5568 10.3036 10.8692 10.1522 11.2346C10.0009 11.6001 9.96126 12.0022 10.0384 12.3902C10.1156 12.7781 10.3061 13.1345 10.5858 13.4142C10.8655 13.6939 11.2219 13.8844 11.6098 13.9616C11.9978 14.0387 12.3999 13.9991 12.7654 13.8478C13.1308 13.6964 13.4432 13.44 13.6629 13.1111C13.8827 12.7822 14 12.3956 14 12C13.9984 11.4701 13.7872 10.9623 13.4125 10.5875C13.0377 10.2128 12.5299 10.0016 12 10ZM20 10C19.6044 10 19.2178 10.1173 18.8889 10.3371C18.56 10.5568 18.3036 10.8692 18.1522 11.2346C18.0009 11.6001 17.9613 12.0022 18.0384 12.3902C18.1156 12.7781 18.3061 13.1345 18.5858 13.4142C18.8655 13.6939 19.2219 13.8844 19.6098 13.9616C19.9978 14.0387 20.3999 13.9991 20.7654 13.8478C21.1308 13.6964 21.4432 13.44 21.6629 13.1111C21.8827 12.7822 22 12.3956 22 12C21.9984 11.4701 21.7872 10.9623 21.4125 10.5875C21.0377 10.2128 20.5299 10.0016 20 10Z" fill="#3B434B"/>
</svg>
