<svg xmlns="http://www.w3.org/2000/svg" xml:space="preserve" width="299.861mm" height="299.861mm" version="1.1" style="shape-rendering:geometricPrecision; text-rendering:geometricPrecision; image-rendering:optimizeQuality; fill-rule:evenodd; clip-rule:evenodd" viewBox="0 0 29986 29986" xmlns:xlink="http://www.w3.org/1999/xlink">
 <defs>
  <style type="text/css">
   
    .fil0 {fill:#333333}
    .fil1 {fill:white}
   
  </style>
 </defs>
 <g id="Layer_x0020_1">
  <metadata id="CorelCorpID_0Corel-Layer"></metadata>
  <circle class="fil0" cx="14993" cy="14993" r="14993" id="id_101" style="fill: rgb(79, 123, 255);"></circle>
  <g id="_595810176">
   <g>
    <g>
     <path class="fil1" d="M12115 24022c-183,0 -367,-70 -508,-211l-5432 -5435c-134,-135 -208,-314 -208,-508 0,-194 74,-374 208,-508l11188 -11188c134,-134 314,-208 508,-208 194,0 374,74 508,208l5432 5432c134,134 208,313 208,507 0,194 -74,374 -208,508l-11188 11195c-141,138 -325,208 -508,208zm5756 -17561c-60,0 -116,25 -159,64l-11187 11187 0 0c-43,43 -64,99 -64,159 0,60 25,117 64,159l5431 5435c85,85 233,85 318,0l11191 -11191c42,-43 64,-99 64,-159 0,-60 -25,-116 -64,-159l-5432 -5431c-45,-43 -102,-64 -162,-64zm-11519 11079l0 0 0 0z" id="id_102"></path>
    </g>
    <g>
     <path class="fil1" d="M10612 20598c-282,0 -560,-113 -783,-325 -98,-95 -102,-250 -7,-349 96,-99 251,-102 350,-7 194,183 440,236 680,141 272,-106 565,-399 660,-653 81,-215 42,-430 -102,-571 -96,-95 -240,-187 -530,-81 -130,49 -292,152 -462,264 -476,307 -1125,727 -1689,163 -279,-279 -363,-699 -219,-1090 148,-388 543,-783 942,-942 420,-169 871,-77 1206,236 99,96 103,251 11,350 -95,98 -251,102 -349,10 -198,-183 -445,-236 -685,-137 -268,105 -564,398 -659,656 -78,211 -39,426 102,568 254,253 536,119 1072,-226 194,-124 378,-244 561,-311 519,-190 857,4 1051,198 279,279 360,698 215,1093 -144,388 -539,787 -941,942 -138,42 -283,71 -424,71z" id="id_103"></path>
    </g>
    <g>
     <path class="fil1" d="M11861 20753c-64,0 -127,-25 -176,-74l-494 -494c-50,-49 -71,-113 -71,-173 0,-63 25,-127 74,-176 96,-95 254,-95 350,0l493 494c50,49 71,112 71,172 0,64 -25,127 -74,177 -46,49 -110,74 -173,74zm-2801 -2804c-63,0 -126,-25 -172,-71l-494 -494c-95,-95 -95,-254 0,-349 95,-95 254,-95 349,0l494 494c95,95 95,254 0,349 -50,46 -113,71 -177,71z" id="id_104"></path>
    </g>
    <g>
     <path class="fil1" d="M19314 15335c-64,0 -127,-25 -177,-70 -95,-96 -95,-254 0,-350l2826 -2825c95,-95 254,-95 349,0 95,95 95,254 0,349l-2825 2826c-50,49 -113,70 -173,70z" id="id_105"></path>
    </g>
    <g>
     <path class="fil1" d="M13819 18633c-64,0 -127,-25 -173,-71 -96,-95 -96,-253 0,-349l7329 -7329c95,-95 254,-95 349,0 95,95 95,254 0,349l-7329 7329c-50,50 -113,71 -176,71z" id="id_106"></path>
    </g>
    <g>
     <path class="fil1" d="M12711 17525c-63,0 -127,-24 -173,-70 -95,-95 -95,-254 0,-349l7329 -7333c96,-95 254,-95 350,0 95,95 95,254 0,349l-7333 7329c-46,50 -109,74 -173,74z" id="id_107"></path>
    </g>
    <g>
     <path class="fil1" d="M11600 16414c-64,0 -127,-24 -173,-70 -95,-95 -95,-254 0,-349l7329 -7330c96,-95 254,-95 350,0 95,96 95,254 0,350l-7330 7329c-49,46 -113,70 -176,70z" id="id_108"></path>
    </g>
    <g>
     <path class="fil1" d="M10492 15303c-63,0 -126,-24 -172,-70 -96,-95 -96,-254 0,-349l7329 -7330c95,-95 254,-95 349,0 95,96 95,254 0,350l-7333 7329c-46,46 -109,70 -173,70z" id="id_109"></path>
    </g>
   </g>
  </g>
 </g>
</svg>